<svg xmlns="http://www.w3.org/2000/svg" width="452.229" height="57.074" viewBox="0 0 452.229 57.074">
  <g id="Group_162429" data-name="Group 162429" transform="translate(-144.411 -178.5)">
    <g id="Group_162422" data-name="Group 162422">
      <g id="Group_162421" data-name="Group 162421">
        <path id="Path_83164" data-name="Path 83164" d="M365.6,206.992h-27.4v27.5l27.417-.007-.022-27.429Z" fill="#3387ff"/>
        <path id="Path_83165" data-name="Path 83165" d="M393.093,207.014v-27.45l-27.492-.007v27.436h.1Z" fill="#5c43ff"/>
        <path id="Path_83166" data-name="Path 83166" d="M393.093,207.014l-27.388-.022h-.1v.063l.022,27.429h.034l27.436-27.436Z" fill="#00b4db"/>
        <path id="Path_83167" data-name="Path 83167" d="M338.208,179.587H365.6L338.208,206.98Z" fill="#272727"/>
      </g>
    </g>
    <g id="Group_162425" data-name="Group 162425">
      <g id="Group_162423" data-name="Group 162423">
        <path id="Path_83168" data-name="Path 83168" d="M408.818,232.725a4.827,4.827,0,0,0,1.393-.184,3.42,3.42,0,0,0,1.06-.516,3.017,3.017,0,0,0,.752-.8,3.82,3.82,0,0,0,.463-1.037,4.29,4.29,0,0,0,.151-.791c.027-.291.043-.572.043-.844v-8.926h1.752v8.883q0,.505-.053,1.054a7.307,7.307,0,0,1-.172,1.021,5.556,5.556,0,0,1-.613,1.474,4.143,4.143,0,0,1-1.065,1.171,5,5,0,0,1-1.576.775,8.467,8.467,0,0,1-4.23.021,4.989,4.989,0,0,1-1.534-.714,4.062,4.062,0,0,1-1.048-1.086,5.392,5.392,0,0,1-.635-1.371,6.617,6.617,0,0,1-.231-1.152,10.426,10.426,0,0,1-.07-1.193v-8.883h1.754v8.926a7.608,7.608,0,0,0,.068.995,4.662,4.662,0,0,0,.221.93,3.307,3.307,0,0,0,1.254,1.645A4.017,4.017,0,0,0,408.818,232.725Z" fill="#272727"/>
        <path id="Path_83169" data-name="Path 83169" d="M425.422,227.648q1.324,1.905,2.613,3.915h.064q-.139-2.1-.138-4.28v-7.657h1.763v14.389h-1.753l-5.645-8.023q-1.465-2.1-2.613-3.914h-.065q.138,1.97.139,4.592v7.345h-1.752V219.626h1.742Z" fill="#272727"/>
        <path id="Path_83170" data-name="Path 83170" d="M433.369,234.015V219.626h1.752v14.389Z" fill="#272727"/>
        <path id="Path_83171" data-name="Path 83171" d="M443.939,234.015h-1.752V221.207h-4.808v-1.581h11.367v1.581h-4.807Z" fill="#272727"/>
        <path id="Path_83172" data-name="Path 83172" d="M452.758,232.434h7.377v1.581H451V219.626h8.732v1.581h-6.978v4.646h6.205v1.581h-6.205Z" fill="#272727"/>
        <path id="Path_83173" data-name="Path 83173" d="M474.8,226.756a8.649,8.649,0,0,1-.313,2.366,6.433,6.433,0,0,1-.939,1.994,6.213,6.213,0,0,1-1.571,1.533,7.436,7.436,0,0,1-2.2,1,8.83,8.83,0,0,1-1.56.285q-.839.079-1.817.081h-3.258V219.626h3.291c.651,0,1.258.027,1.817.081a8.84,8.84,0,0,1,1.558.285,7.611,7.611,0,0,1,2.2.989,6.083,6.083,0,0,1,1.56,1.5,6.28,6.28,0,0,1,.924,1.947A8.476,8.476,0,0,1,474.8,226.756Zm-1.743,0a5.673,5.673,0,0,0-.916-3.365,4.887,4.887,0,0,0-2.625-1.828,7.107,7.107,0,0,0-1.461-.281q-.806-.075-1.82-.075H464.9v11.227h1.34q1.014,0,1.82-.076a7.045,7.045,0,0,0,1.461-.279,4.786,4.786,0,0,0,2.625-1.882A5.974,5.974,0,0,0,473.06,226.756Z" fill="#272727"/>
        <path id="Path_83174" data-name="Path 83174" d="M482.33,234.015V219.626h1.752v14.389Z" fill="#272727"/>
        <path id="Path_83175" data-name="Path 83175" d="M495.127,227.648q1.321,1.905,2.613,3.915h.065q-.141-2.1-.141-4.28v-7.657h1.764v14.389h-1.752l-5.647-8.023q-1.461-2.1-2.613-3.914h-.065q.141,1.97.141,4.592v7.345h-1.754V219.626h1.742Z" fill="#272727"/>
        <path id="Path_83176" data-name="Path 83176" d="M514.73,226.756a8.651,8.651,0,0,1-.312,2.366,6.437,6.437,0,0,1-.94,1.994,6.21,6.21,0,0,1-1.57,1.533,7.436,7.436,0,0,1-2.2,1,8.842,8.842,0,0,1-1.561.285q-.837.079-1.816.081h-3.258V219.626h3.291c.651,0,1.258.027,1.817.081a8.84,8.84,0,0,1,1.558.285,7.605,7.605,0,0,1,2.2.989,6.088,6.088,0,0,1,1.561,1.5,6.281,6.281,0,0,1,.924,1.947A8.475,8.475,0,0,1,514.73,226.756Zm-1.742,0a5.68,5.68,0,0,0-.916-3.365,4.887,4.887,0,0,0-2.625-1.828,7.119,7.119,0,0,0-1.461-.281q-.805-.075-1.82-.075h-1.34v11.227h1.34q1.014,0,1.82-.076a7.057,7.057,0,0,0,1.461-.279,4.786,4.786,0,0,0,2.625-1.882A5.982,5.982,0,0,0,512.988,226.756Z" fill="#272727"/>
        <path id="Path_83177" data-name="Path 83177" d="M523.408,232.725a4.832,4.832,0,0,0,1.393-.184,3.433,3.433,0,0,0,1.06-.516,3.017,3.017,0,0,0,.752-.8,3.818,3.818,0,0,0,.463-1.037,4.292,4.292,0,0,0,.15-.791c.028-.291.043-.572.043-.844v-8.926h1.752v8.883q0,.505-.052,1.054a7.307,7.307,0,0,1-.172,1.021,5.525,5.525,0,0,1-.614,1.474,4.125,4.125,0,0,1-1.064,1.171,5,5,0,0,1-1.576.775,8.471,8.471,0,0,1-4.231.021,4.994,4.994,0,0,1-1.533-.714,4.067,4.067,0,0,1-1.049-1.086,5.423,5.423,0,0,1-.634-1.371,6.614,6.614,0,0,1-.231-1.152,10.426,10.426,0,0,1-.07-1.193v-8.883h1.754v8.926a7.613,7.613,0,0,0,.068.995,4.658,4.658,0,0,0,.221.93,3.307,3.307,0,0,0,1.254,1.645A4.017,4.017,0,0,0,523.408,232.725Z" fill="#272727"/>
        <path id="Path_83178" data-name="Path 83178" d="M534.021,223.434a1.946,1.946,0,0,0,.258,1.047,2.1,2.1,0,0,0,.692.683,4.132,4.132,0,0,0,1.007.441q.574.173,1.2.323.837.2,1.646.452a5.2,5.2,0,0,1,1.442.683,3.344,3.344,0,0,1,1.025,1.134,3.662,3.662,0,0,1,.391,1.8,4.115,4.115,0,0,1-.424,1.93,3.684,3.684,0,0,1-1.172,1.334,5.308,5.308,0,0,1-1.77.774,9.332,9.332,0,0,1-2.236.252,9.8,9.8,0,0,1-1.146-.069q-.586-.07-1.118-.189a8.711,8.711,0,0,1-.963-.268,3.618,3.618,0,0,1-.677-.3v-1.6a6.762,6.762,0,0,0,.871.354,9.767,9.767,0,0,0,1,.274c.344.076.691.134,1.043.178a8.17,8.17,0,0,0,.99.065,7.67,7.67,0,0,0,1.436-.13,3.751,3.751,0,0,0,1.2-.43,2.219,2.219,0,0,0,.816-.822,2.579,2.579,0,0,0,.3-1.307,1.961,1.961,0,0,0-.264-1.064,2.173,2.173,0,0,0-.7-.7,4.247,4.247,0,0,0-1.017-.446c-.383-.114-.787-.222-1.209-.322q-.839-.193-1.641-.436a5.161,5.161,0,0,1-1.43-.672,3.267,3.267,0,0,1-1.011-1.107,3.505,3.505,0,0,1-.381-1.731,4.132,4.132,0,0,1,.4-1.888,3.748,3.748,0,0,1,1.086-1.307,4.689,4.689,0,0,1,1.578-.764,7.152,7.152,0,0,1,1.9-.247,9.96,9.96,0,0,1,2.144.221,10.222,10.222,0,0,1,1.822.575v1.624a12.447,12.447,0,0,0-1.843-.613,8.831,8.831,0,0,0-2.038-.247,5.016,5.016,0,0,0-1.419.178,2.767,2.767,0,0,0-1,.505,2.006,2.006,0,0,0-.592.8A2.688,2.688,0,0,0,534.021,223.434Z" fill="#272727"/>
        <path id="Path_83179" data-name="Path 83179" d="M549.937,234.015h-1.752V221.207h-4.808v-1.581h11.367v1.581h-4.807Z" fill="#272727"/>
        <path id="Path_83180" data-name="Path 83180" d="M558.756,228.058v5.957H557V219.626h3.728a15.529,15.529,0,0,1,1.606.07,7.578,7.578,0,0,1,1.209.221,4.286,4.286,0,0,1,2.3,1.393,3.776,3.776,0,0,1,.8,2.457,4.08,4.08,0,0,1-.28,1.559,3.53,3.53,0,0,1-.785,1.194,4.122,4.122,0,0,1-1.209.828,6.34,6.34,0,0,1-1.564.472v.043l4.258,6.152H565.3l-4.432-5.957Zm0-6.851v5.27h1.73q.805,0,1.377-.054a5.116,5.116,0,0,0,1.022-.194,2.805,2.805,0,0,0,1.408-.892,2.473,2.473,0,0,0,.494-1.6,2.31,2.31,0,0,0-.473-1.489,2.553,2.553,0,0,0-1.279-.812,4.84,4.84,0,0,0-.926-.172c-.357-.035-.812-.054-1.365-.054Z" fill="#272727"/>
        <path id="Path_83181" data-name="Path 83181" d="M570.035,234.015V219.626h1.754v14.389Z" fill="#272727"/>
        <path id="Path_83182" data-name="Path 83182" d="M577.2,232.434h7.377v1.581h-9.129V219.626h8.731v1.581H577.2v4.646h6.2v1.581h-6.2Z" fill="#272727"/>
        <path id="Path_83183" data-name="Path 83183" d="M588.982,223.434a1.946,1.946,0,0,0,.258,1.047,2.093,2.093,0,0,0,.692.683,4.184,4.184,0,0,0,1.007.441q.574.173,1.2.323.834.2,1.644.452a5.169,5.169,0,0,1,1.443.683,3.311,3.311,0,0,1,1.024,1.134,3.639,3.639,0,0,1,.393,1.8,4.139,4.139,0,0,1-.424,1.93,3.68,3.68,0,0,1-1.174,1.334,5.291,5.291,0,0,1-1.77.774,9.309,9.309,0,0,1-2.236.252,9.791,9.791,0,0,1-1.145-.069q-.585-.07-1.119-.189a8.714,8.714,0,0,1-.963-.268,3.743,3.743,0,0,1-.677-.3v-1.6a6.823,6.823,0,0,0,.871.354,9.808,9.808,0,0,0,1,.274c.343.076.691.134,1.043.178a8.112,8.112,0,0,0,.988.065,7.647,7.647,0,0,0,1.436-.13,3.733,3.733,0,0,0,1.2-.43,2.2,2.2,0,0,0,.816-.822,2.579,2.579,0,0,0,.3-1.307,1.96,1.96,0,0,0-.264-1.064,2.168,2.168,0,0,0-.7-.7,4.231,4.231,0,0,0-1.015-.446q-.578-.171-1.211-.322-.839-.193-1.639-.436a5.147,5.147,0,0,1-1.432-.672,3.261,3.261,0,0,1-1.009-1.107,3.5,3.5,0,0,1-.383-1.731,4.12,4.12,0,0,1,.4-1.888,3.727,3.727,0,0,1,1.086-1.307,4.681,4.681,0,0,1,1.578-.764,7.125,7.125,0,0,1,1.9-.247,9.981,9.981,0,0,1,2.147.221,10.353,10.353,0,0,1,1.822.575v1.624a12.617,12.617,0,0,0-1.844-.613,8.82,8.82,0,0,0-2.039-.247,5.033,5.033,0,0,0-1.42.178,2.8,2.8,0,0,0-1,.505,2.028,2.028,0,0,0-.589.8A2.689,2.689,0,0,0,588.982,223.434Z" fill="#272727"/>
      </g>
      <g id="Group_162424" data-name="Group 162424">
        <path id="Path_83184" data-name="Path 83184" d="M492.588,191.045c-2.656-.975-4.95-1.818-4.95-3.139,0-1.059,1.511-1.772,3.761-1.772,2.428,0,4.981.728,9.418,2.682l1.031.455.034-7.576-.452-.192a26.15,26.15,0,0,0-10.722-2.437c-7.442,0-12.443,3.823-12.443,9.513,0,7.085,6.106,9.265,10.564,10.858,2.729.974,5.086,1.816,5.086,3.307-.016,1.73-2.056,2.093-3.766,2.093-3.222,0-5.775-.964-10.118-3.82l-1.144-.752v8.4l.4.206c3.157,1.636,5.882,3.048,11.423,3.048,4.187,0,7.722-1.234,9.954-3.475a8.993,8.993,0,0,0,2.594-6.539C503.256,194.961,497.09,192.7,492.588,191.045Z" fill="#272727"/>
        <path id="Path_83185" data-name="Path 83185" d="M539.807,179.6l-9.534,10.973L520.756,179.6l-7.745.005V211.67h9.136V193.811l7.205,8.328,1.859.019,7.181-8.357.012,17.869h9.144l-.02-32.072Z" fill="#272727"/>
        <path id="Path_83186" data-name="Path 83186" d="M426.9,196.574l9.137-.144V179.6h-9.109Z" fill="#272727"/>
        <path id="Path_83187" data-name="Path 83187" d="M426.487,196.581,411.626,179.6l-8.115-.008V211.67h9.127V193.31l15.9,18.36h7.5V207.39l-9.647-10.808Z" fill="#272727"/>
        <path id="Path_83188" data-name="Path 83188" d="M579.57,179.6l-9.858.007L556.727,211.67h9.72l2.29-6.07h.011l2.6-6.806h-.025l3.467-9.14,3.812,9.14h-7.2l4.751,6.806h5.308l2.526,6.07h9.851Z" fill="#272727"/>
        <path id="Path_83189" data-name="Path 83189" d="M454.657,204.586l8.437,7.084h6.459l-.025-7.084Z" fill="#272727"/>
        <path id="Path_83190" data-name="Path 83190" d="M454.555,198.7l14-.02v-7.046l-14-.027.015-4.926h14.654V179.6H445.416V211.67h9.1l.063-7.084h-.008Z" fill="#272727"/>
      </g>
    </g>
    <g id="Group_162428" data-name="Group 162428">
      <g id="Group_162426" data-name="Group 162426">
        <rect id="Rectangle_147882" data-name="Rectangle 147882" width="8.835" height="7.081" transform="translate(318.949 179.605)" fill="#272727"/>
        <path id="Path_83191" data-name="Path 83191" d="M327,187.692l-8.1,6.749V204H301.72V186.575H292.8v17.634h-5.927V186.575h-8.786v17.634h-6.357V186.575h-8.774V204h-67.26v-4.3c0-8.615-6.369-12.849-14.53-12.849s-14.53,4.234-14.53,12.849c0,3.816-1.877,4.3-4.172,4.3h-9.118V178.5h-8.933v32.446h14.2l8.2-6.81.037,3.424.012,2.208.013,1.2h7.178v-.012l153.739.208V187.041ZM186.5,205.927h-5.338c-3.657,0-5.326-2.712-5.326-6.221s1.669-6.21,5.326-6.21,5.338,2.712,5.338,6.21Z" fill="#272727"/>
      </g>
      <g id="Group_162427" data-name="Group 162427">
        <path id="Path_83192" data-name="Path 83192" d="M149.838,235.168a5.376,5.376,0,0,1-2.125-.4,4.3,4.3,0,0,1-1.558-1.1,4.773,4.773,0,0,1-.961-1.687,7.289,7.289,0,0,1,0-4.343,4.762,4.762,0,0,1,.961-1.7,4.324,4.324,0,0,1,1.558-1.1,5.911,5.911,0,0,1,4.249,0,4.338,4.338,0,0,1,1.557,1.1,4.762,4.762,0,0,1,.961,1.7,7.288,7.288,0,0,1,0,4.343,4.774,4.774,0,0,1-.961,1.687,4.313,4.313,0,0,1-1.557,1.1A5.371,5.371,0,0,1,149.838,235.168Zm0-1.772a3.31,3.31,0,0,0,1.377-.266,2.659,2.659,0,0,0,.97-.736,3.147,3.147,0,0,0,.577-1.132,5.558,5.558,0,0,0,0-2.9,3.134,3.134,0,0,0-.577-1.131,2.661,2.661,0,0,0-.97-.737,3.7,3.7,0,0,0-2.754,0,2.66,2.66,0,0,0-.972.737,3.132,3.132,0,0,0-.576,1.131,5.586,5.586,0,0,0,0,2.9,3.145,3.145,0,0,0,.576,1.132,2.657,2.657,0,0,0,.972.736A3.291,3.291,0,0,0,149.838,233.4Zm-2.327-13.726h1.814v2.5h-1.814Zm3.65,0h1.814v2.5h-1.814Z" fill="#272727"/>
        <path id="Path_83193" data-name="Path 83193" d="M168.111,233.2a1.063,1.063,0,0,1,.309.043c.094.028.139.114.139.256v1.2c0,.156-.149.235-.448.235h-1.025a2.3,2.3,0,0,1-.629-.1,2.848,2.848,0,0,1-.641-.278,2.331,2.331,0,0,1-.545-.438,1.9,1.9,0,0,1-.363-.576h-.084a2.751,2.751,0,0,1-.16.619,2.851,2.851,0,0,1-.439.769H156.84V233.2h6.19v-2.711a6.124,6.124,0,0,0-.181-1.494,3.582,3.582,0,0,0-.587-1.27,3.044,3.044,0,0,0-1.026-.875,3.122,3.122,0,0,0-1.494-.332h-1.963v-1.708h1.643a6.932,6.932,0,0,1,2.156.321,4.454,4.454,0,0,1,1.709,1.013,4.715,4.715,0,0,1,1.131,1.784,7.567,7.567,0,0,1,.406,2.626v.3a2.231,2.231,0,0,0,.661,1.761,2.354,2.354,0,0,0,1.622.587Z" fill="#272727"/>
        <path id="Path_83194" data-name="Path 83194" d="M179.788,233.2v-3.373a3.087,3.087,0,0,0-.384-1.537,3.789,3.789,0,0,0-.993-1.152,4.421,4.421,0,0,0-1.377-.715,5.017,5.017,0,0,0-1.537-.246,3.923,3.923,0,0,0-1.356.246,5.161,5.161,0,0,0-1.238.65,4.041,4.041,0,0,0-.95.95,2.824,2.824,0,0,0-.49,1.143h-1.751a4.539,4.539,0,0,1,.555-1.815,5.412,5.412,0,0,1,1.227-1.5,5.715,5.715,0,0,1,1.783-1.025,6.434,6.434,0,0,1,2.22-.373,7.5,7.5,0,0,1,2.444.384,5.7,5.7,0,0,1,1.944,1.11,5.066,5.066,0,0,1,1.28,1.761,5.656,5.656,0,0,1,.459,2.316v.961a2.052,2.052,0,0,0,.661,1.665,2.435,2.435,0,0,0,1.623.555h1a1.063,1.063,0,0,1,.309.043c.092.028.138.114.138.256v1.2c0,.156-.148.235-.447.235h-1.025a2.28,2.28,0,0,1-.629-.1,2.829,2.829,0,0,1-.641-.278,2.311,2.311,0,0,1-.545-.438,1.9,1.9,0,0,1-.363-.576h-.085a2.646,2.646,0,0,1-.16.619,2.846,2.846,0,0,1-.438.769H168.111c-.3,0-.449-.079-.449-.235v-1.2c0-.142.047-.228.139-.256a1.07,1.07,0,0,1,.31-.043Z" fill="#272727"/>
        <path id="Path_83195" data-name="Path 83195" d="M194.134,234.934a3.11,3.11,0,0,1-.929-.15,3.91,3.91,0,0,1-.9-.4,3.722,3.722,0,0,1-.736-.588,2.156,2.156,0,0,1-.47-.715,3.157,3.157,0,0,1-1.335,1.409,3.737,3.737,0,0,1-1.781.449h-3.074c-.3,0-.449-.079-.449-.235v-1.2c0-.142.047-.228.138-.256a1.082,1.082,0,0,1,.311-.043h3.1a1.822,1.822,0,0,0,1.259-.48,2.145,2.145,0,0,0,.535-1.655V225.84h1.793v4.482a3.259,3.259,0,0,0,.2,1.174,2.784,2.784,0,0,0,.544.908,2.463,2.463,0,0,0,.811.587,2.337,2.337,0,0,0,.982.213h.918a1.063,1.063,0,0,1,.309.043c.092.028.139.114.139.256v1.2c0,.156-.15.235-.448.235Zm-6.277-15.264h1.815v2.5h-1.815Zm3.651,0h1.814v2.5h-1.814Z" fill="#272727"/>
        <path id="Path_83196" data-name="Path 83196" d="M195.052,234.934c-.3,0-.449-.079-.449-.235v-1.2c0-.142.047-.228.139-.256a1.065,1.065,0,0,1,.31-.043h3.65c.314,0,.47.079.47.235v1.2c0,.142-.047.227-.139.256a1.118,1.118,0,0,1-.331.043Z" fill="#272727"/>
        <path id="Path_83197" data-name="Path 83197" d="M206.75,235.574a5.58,5.58,0,0,1-2.711-.608,4,4,0,0,1-1.687-1.762,2.379,2.379,0,0,1-.522.747,3.552,3.552,0,0,1-.727.545,3.207,3.207,0,0,1-.832.331,3.567,3.567,0,0,1-.843.107H198.7c-.3,0-.448-.079-.448-.235v-1.2c0-.142.047-.228.138-.256a1.07,1.07,0,0,1,.31-.043h.7a3.343,3.343,0,0,0,.908-.117,1.629,1.629,0,0,0,.725-.427,2.241,2.241,0,0,0,.5-.822,4.135,4.135,0,0,0,.214-1.323v-.171a5.327,5.327,0,0,1,1.335-3.886,5.589,5.589,0,0,1,7.322,0,5.335,5.335,0,0,1,1.334,3.886v.171a4.374,4.374,0,0,0,.2,1.323,2.135,2.135,0,0,0,.49.822,1.637,1.637,0,0,0,.737.427,3.461,3.461,0,0,0,.918.117h.705a1.051,1.051,0,0,1,.308.043c.094.028.139.114.139.256v1.2c0,.156-.148.235-.447.235h-.727a3.51,3.51,0,0,1-.853-.107,3.234,3.234,0,0,1-.823-.331,3.54,3.54,0,0,1-.725-.545,2.365,2.365,0,0,1-.523-.747,4.143,4.143,0,0,1-1.7,1.762A5.518,5.518,0,0,1,206.75,235.574Zm0-1.772a3.075,3.075,0,0,0,2.242-.854,3.491,3.491,0,0,0,.875-2.6,3.551,3.551,0,0,0-.865-2.615,3.364,3.364,0,0,0-4.5,0,3.556,3.556,0,0,0-.865,2.615,3.491,3.491,0,0,0,.876,2.6A3.072,3.072,0,0,0,206.75,233.8Z" fill="#272727"/>
        <path id="Path_83198" data-name="Path 83198" d="M218.363,233.2V219.67h1.793v15.264H214.8c-.3,0-.45-.079-.45-.235v-1.2c0-.142.047-.228.139-.256a1.077,1.077,0,0,1,.311-.043Z" fill="#272727"/>
        <path id="Path_83199" data-name="Path 83199" d="M222.932,234.934V219.67h1.814v15.264Z" fill="#272727"/>
        <path id="Path_83200" data-name="Path 83200" d="M248.442,233.2V225.84h1.815v9.094h-13.79a5.707,5.707,0,0,1-1.731-.256,3.557,3.557,0,0,1-1.419-.844,4.076,4.076,0,0,1-.961-1.526A6.6,6.6,0,0,1,232,230v-1.43h1.666v1.451a3.452,3.452,0,0,0,.715,2.413,2.7,2.7,0,0,0,2.082.768Zm-10.1-11.677h1.814v2.5h-1.814Zm3.65,0h1.815v2.5h-1.815Z" fill="#272727"/>
        <path id="Path_83201" data-name="Path 83201" d="M256.767,233.2a1.07,1.07,0,0,1,.31.043c.093.028.139.114.139.256v1.2c0,.156-.15.235-.449.235h-3.736V219.67h1.815V233.2Z" fill="#272727"/>
        <path id="Path_83202" data-name="Path 83202" d="M261.037,233.2v-.085a4.331,4.331,0,0,1-.48-.6,5.4,5.4,0,0,1-.491-.885,6.8,6.8,0,0,1-.374-1.078,4.57,4.57,0,0,1-.149-1.154,5.874,5.874,0,0,1,.342-2.07,4.394,4.394,0,0,1,.961-1.559,4.169,4.169,0,0,1,1.482-.982,5.157,5.157,0,0,1,1.911-.341,3.888,3.888,0,0,1,1.794.384,4.026,4.026,0,0,1,1.259.993,4.654,4.654,0,0,1,.8,1.377,8.179,8.179,0,0,1,.416,1.537h-1.751a3.278,3.278,0,0,0-.266-.939,2.958,2.958,0,0,0-.534-.8,2.491,2.491,0,0,0-.769-.555,2.234,2.234,0,0,0-.95-.2,2.972,2.972,0,0,0-1.015.182,2.5,2.5,0,0,0-.9.565,2.742,2.742,0,0,0-.629.983,3.9,3.9,0,0,0-.234,1.429,5.249,5.249,0,0,0,.213,1.537,3.6,3.6,0,0,0,.608,1.206,2.81,2.81,0,0,0,.938.78,2.579,2.579,0,0,0,1.186.277h4.248v1.73H256.767c-.3,0-.448-.079-.448-.235v-1.2c0-.142.046-.228.139-.256a1.068,1.068,0,0,1,.309-.043Z" fill="#272727"/>
        <path id="Path_83203" data-name="Path 83203" d="M274.742,233.2a1.075,1.075,0,0,1,.31.043c.092.028.138.114.138.256v1.2c0,.156-.149.235-.448.235h-3.736V219.67h1.814V233.2Z" fill="#272727"/>
        <path id="Path_83204" data-name="Path 83204" d="M283.965,234.934a3.116,3.116,0,0,1-.93-.15,3.921,3.921,0,0,1-.9-.4,3.728,3.728,0,0,1-.737-.588,2.153,2.153,0,0,1-.469-.715,3.166,3.166,0,0,1-1.334,1.409,3.745,3.745,0,0,1-1.783.449h-3.074c-.3,0-.448-.079-.448-.235v-1.2c0-.142.046-.228.138-.256a1.075,1.075,0,0,1,.31-.043h3.1a1.827,1.827,0,0,0,1.26-.48,2.149,2.149,0,0,0,.533-1.655V225.84h1.793v4.482a3.281,3.281,0,0,0,.2,1.174,2.768,2.768,0,0,0,.545.908,2.459,2.459,0,0,0,.81.587,2.339,2.339,0,0,0,.983.213h.918a1.056,1.056,0,0,1,.308.043c.093.028.139.114.139.256v1.2c0,.156-.148.235-.447.235Zm-4.291-15.264h1.814v2.5h-1.814Z" fill="#272727"/>
        <path id="Path_83205" data-name="Path 83205" d="M284.882,234.934c-.3,0-.449-.079-.449-.235v-1.2c0-.142.047-.228.139-.256a1.065,1.065,0,0,1,.31-.043h3.65c.314,0,.47.079.47.235v1.2c0,.142-.047.227-.139.256a1.118,1.118,0,0,1-.331.043Z" fill="#272727"/>
        <path id="Path_83206" data-name="Path 83206" d="M288.532,234.934c-.3,0-.448-.079-.448-.235v-1.2c0-.142.047-.228.139-.256a1.059,1.059,0,0,1,.309-.043h3.65c.314,0,.47.079.47.235v1.2c0,.142-.047.227-.138.256a1.125,1.125,0,0,1-.332.043Z" fill="#272727"/>
        <path id="Path_83207" data-name="Path 83207" d="M292.182,234.934c-.3,0-.448-.079-.448-.235v-1.2c0-.142.047-.228.139-.256a1.063,1.063,0,0,1,.309-.043h2.9v-6.766H296.9v4.226h.086a23.865,23.865,0,0,1,1.537-1.985,13.819,13.819,0,0,1,1.921-1.858,10.329,10.329,0,0,1,2.252-1.366,6.25,6.25,0,0,1,2.552-.533,5.388,5.388,0,0,1,3.863,1.334,5.14,5.14,0,0,1,1.409,3.917v.811a2.049,2.049,0,0,0,.662,1.665,2.435,2.435,0,0,0,1.623.555h1.045a1.065,1.065,0,0,1,.31.043c.093.028.139.114.139.256v1.2c0,.156-.15.235-.449.235h-1.067a2.291,2.291,0,0,1-.629-.1,2.8,2.8,0,0,1-.64-.278,2.311,2.311,0,0,1-.545-.438,1.881,1.881,0,0,1-.364-.576h-.085a2.6,2.6,0,0,1-.16.619,2.841,2.841,0,0,1-.437.769Zm12.98-8.284a4.007,4.007,0,0,0-1.676.385,8.386,8.386,0,0,0-1.643,1,15.214,15.214,0,0,0-1.537,1.366q-.738.747-1.335,1.474t-1.045,1.355c-.3.42-.528.744-.684.971h11.506v-3.1a3.707,3.707,0,0,0-.287-1.5,3.127,3.127,0,0,0-.77-1.079,3.285,3.285,0,0,0-1.141-.65A4.313,4.313,0,0,0,305.162,226.65Z" fill="#272727"/>
        <path id="Path_83208" data-name="Path 83208" d="M321.621,234.934a3.115,3.115,0,0,1-.929-.15,3.922,3.922,0,0,1-.9-.4,3.729,3.729,0,0,1-.737-.588,2.138,2.138,0,0,1-.469-.715,3.166,3.166,0,0,1-1.334,1.409,3.748,3.748,0,0,1-1.783.449H313.85c-.3,0-.448-.079-.448-.235v-1.2c0-.142.047-.228.139-.256a1.063,1.063,0,0,1,.309-.043h1.644a1.823,1.823,0,0,0,1.26-.48,2.149,2.149,0,0,0,.533-1.655v-11.4h1.794v10.652a3.281,3.281,0,0,0,.2,1.174,2.786,2.786,0,0,0,.545.908,2.473,2.473,0,0,0,.811.587,2.334,2.334,0,0,0,.982.213h.853a1.077,1.077,0,0,1,.311.043c.092.028.139.114.139.256v1.2c0,.156-.151.235-.45.235Z" fill="#272727"/>
        <path id="Path_83209" data-name="Path 83209" d="M326.04,233.2V219.67h1.794v15.264h-5.36c-.3,0-.447-.079-.447-.235v-1.2c0-.142.046-.228.139-.256a1.056,1.056,0,0,1,.308-.043Z" fill="#272727"/>
      </g>
    </g>
  </g>
</svg>
